<?xml version="1.0" encoding="utf-8"?>
<!-- Generator: Adobe Illustrator 18.0.0, SVG Export Plug-In . SVG Version: 6.00 Build 0)  -->
<!DOCTYPE svg PUBLIC "-//W3C//DTD SVG 1.1//EN" "http://www.w3.org/Graphics/SVG/1.1/DTD/svg11.dtd">
<svg version="1.1" id="图层_1" xmlns="http://www.w3.org/2000/svg" xmlns:xlink="http://www.w3.org/1999/xlink" x="0px" y="0px"
	 viewBox="0 0 128 128" enable-background="new 0 0 128 128" xml:space="preserve">
<path fill-rule="evenodd" clip-rule="evenodd" fill="#26A88C" d="M64.5,103.8c23.8,0,43.2-19.4,43.2-43.2
	c0-23.8-19.4-43.2-43.2-43.2S21.3,36.8,21.3,60.6C21.3,84.4,40.7,103.8,64.5,103.8z"/>
<path fill="#F7D46D" d="M89.6,45.3c-0.7,0-1.3-0.6-1.3-1.3c0-0.7,0.6-1.3,1.3-1.3h9.1c0.7,0,1.3,0.6,1.3,1.3c0,0.1,0,0.2,0,0.3
	c-0.3,1.7-5.1,24.2-27.6,24.6c-0.7,0-1.3-0.5-1.3-1.2c0-0.7,0.5-1.3,1.2-1.3C90.1,66.1,95.7,50.3,97,45.3H89.6L89.6,45.3z
	 M39.4,42.8c0.7,0,1.3,0.6,1.3,1.3c0,0.7-0.6,1.3-1.3,1.3h-7.5c1.2,5,6.3,20.8,24.2,21.1c0.7,0,1.3,0.6,1.2,1.3
	c0,0.7-0.6,1.3-1.3,1.2c-22.5-0.4-26.7-22.9-27-24.6c0-0.1,0-0.2,0-0.3c0-0.7,0.6-1.3,1.3-1.3H39.4z"/>
<path fill="#F5AE1A" d="M79.1,68.1c-2.1,0.5-4.4,0.8-6.9,0.9c-0.7,0-1.3-0.5-1.3-1.2c0-0.7,0.5-1.3,1.2-1.3
	c4.5-0.1,8.3-1.1,11.4-2.8C82.3,65.3,80.8,66.8,79.1,68.1L79.1,68.1z M50.2,68.3c-1.6-1.2-3.1-2.6-4.4-4.2c2.9,1.4,6.3,2.2,10.4,2.3
	c0.7,0,1.3,0.6,1.2,1.3c0,0.7-0.6,1.3-1.3,1.2C54,68.9,52,68.7,50.2,68.3z"/>
<path fill-rule="evenodd" clip-rule="evenodd" fill="#8B4A23" d="M42.3,92.5h44.4v15.1c0,2.3-9.9,4.2-22.2,4.2
	c-12.3,0-22.4-1.9-22.2-4.2v0V92.5z"/>
<path fill-rule="evenodd" clip-rule="evenodd" fill="#B46324" d="M64.5,96.6c12.2,0,22.2-1.9,22.2-4.2c0-2.3-10-4.2-22.2-4.2
	c-12.2,0-22.2,1.9-22.2,4.2C42.3,94.8,52.3,96.6,64.5,96.6z"/>
<path fill-rule="evenodd" clip-rule="evenodd" fill="#F7D46D" d="M75.6,93.3v-2.5H53.4v2.5v0c-0.1,1.1,5,2,11.1,2
	C70.7,95.4,75.6,94.5,75.6,93.3z"/>
<path fill-rule="evenodd" clip-rule="evenodd" fill="#F5AE1A" d="M64.5,93.2c6.1,0,11.1-1,11.1-2.3c0-1.3-5-2.3-11.1-2.3
	c-6.1,0-11.1,1-11.1,2.3C53.4,92.1,58.4,93.2,64.5,93.2z"/>
<path fill-rule="evenodd" clip-rule="evenodd" fill="#F5AE1A" d="M51.1,98.1c9.2,1.4,18.1,1.3,26.8,0c0,3.5,0,6.9,0,10.4
	c-8.8,1.6-17.7,1.5-26.8,0C51.1,105,51.1,101.6,51.1,98.1z"/>
<path fill-rule="evenodd" clip-rule="evenodd" fill="#F7D46D" d="M73.8,90.9c-1.2-4-4.9-6.9-9.3-6.9c-4.4,0-8.1,2.9-9.3,6.9h0.1
	c0,0.8,4.1,1.4,9.2,1.4C69.6,92.3,73.7,91.6,73.8,90.9L73.8,90.9z"/>
<path fill-rule="evenodd" clip-rule="evenodd" fill="#F5AE1A" d="M67.5,84.6v0.9c0,0.3-1.4,0.5-3,0.5c-1.7,0-3-0.2-3-0.5v0v-0.9
	c0.9-0.4,2-0.7,3-0.7C65.6,84,66.6,84.2,67.5,84.6z"/>
<path fill-rule="evenodd" clip-rule="evenodd" fill="#F7D46D" d="M61.5,76.1h6.1V85c0,0.3-1.4,0.5-3,0.5c-1.7,0-3-0.2-3-0.5v0V76.1z
	"/>
<path fill-rule="evenodd" clip-rule="evenodd" fill="#FCEDC1" d="M65,79.7c0.7,0.1,1.4,0.1,1.8-0.1v5.2c0,0.1-0.4,0.3-0.9,0.3
	c-0.5,0-0.9-0.1-0.9-0.3v0V79.7z"/>
<path fill-rule="evenodd" clip-rule="evenodd" fill="#F5AE1A" d="M61.5,69.2h6.1v8.9c0.2,1-5.9,1.1-6.1,0v0V69.2z"/>
<path fill-rule="evenodd" clip-rule="evenodd" fill="#F7D46D" d="M74.2,68.6c0,5.4-4.3,9.7-9.7,9.7c-5.4,0-9.7-4.3-9.7-9.7H74.2z"/>
<path fill-rule="evenodd" clip-rule="evenodd" fill="#F5AE1A" d="M74.8,68.4c0,2.9-4.6,5.2-10.3,5.2c-5.7,0-10.3-2.3-10.3-5.2H74.8z
	"/>
<path fill-rule="evenodd" clip-rule="evenodd" fill="#F7D46D" d="M87.2,49.5c0,12.5-10.2,22.7-22.7,22.7
	c-12.5,0-22.7-10.2-22.7-22.7H87.2z"/>
<path fill-rule="evenodd" clip-rule="evenodd" fill="#F7D46D" d="M64.5,42.5c13.8,0,25.1-2.2,25.1-4.8c0-2.6-11.3-4.8-25.1-4.8
	c-13.8,0-25.1,2.2-25.1,4.8C39.4,40.3,50.7,42.5,64.5,42.5z"/>
<path fill-rule="evenodd" clip-rule="evenodd" fill="#F7D46D" d="M39.4,37.7h50.1v13.1l0,0c0,2.6-11.2,4.8-25.1,4.8
	c-13.8,0-25.1-2.1-25.1-4.8l0,0V37.7z"/>
<path fill-rule="evenodd" clip-rule="evenodd" fill="#DA9C15" d="M64.5,41.2c12.7,0,23.1-1.6,23.1-3.5c0-1.9-10.4-3.5-23.1-3.5
	s-23.1,1.6-23.1,3.5C41.4,39.6,51.8,41.2,64.5,41.2z"/>
<path fill-rule="evenodd" clip-rule="evenodd" fill="#F5AE1A" d="M86.7,54.2c-4.2,1.5-12.6,2.6-22.2,2.6c-9.7,0-18-1-22.2-2.6
	c-0.1-0.4-0.2-0.9-0.2-1.3c4.1,1.6,12.6,2.7,22.5,2.7c9.8,0,18.4-1.1,22.5-2.7C86.9,53.3,86.8,53.8,86.7,54.2z"/>
<path fill-rule="evenodd" clip-rule="evenodd" fill="#FCEDC1" d="M84.7,40.6v11.6c-2.3,0.6-5.4,1.1-8.9,1.5V42
	C79.3,41.7,82.3,41.2,84.7,40.6z"/>
<path fill-rule="evenodd" clip-rule="evenodd" fill="#FCEDC1" d="M83,56.2c-2.8,8.9-10.8,15.4-16.1,15.4c3.4-2.7,5.7-7,6.6-14.2
	C77.2,57.2,80.4,56.8,83,56.2z"/>
<path fill-rule="evenodd" clip-rule="evenodd" fill="#FCEDC1" d="M72.1,72.8c-1,3.3-4.6,5.1-6.5,5.1c1.5-1,2.4-1.5,2.7-3.9
	C69.8,73.9,71.2,73.3,72.1,72.8z"/>
<path fill-rule="evenodd" clip-rule="evenodd" fill="#FCEDC1" d="M73,90.8c-1.2-2.8-3-4.5-5.1-5.3c1.5,1,2.2,3.6,2.4,5.8
	C71.7,91.3,72.4,91.1,73,90.8z"/>
</svg>
