<?xml version="1.0" encoding="utf-8"?>
<!-- Generator: Adobe Illustrator 18.0.0, SVG Export Plug-In . SVG Version: 6.00 Build 0)  -->
<!DOCTYPE svg PUBLIC "-//W3C//DTD SVG 1.1//EN" "http://www.w3.org/Graphics/SVG/1.1/DTD/svg11.dtd">
<svg version="1.1" id="图层_1" xmlns="http://www.w3.org/2000/svg" xmlns:xlink="http://www.w3.org/1999/xlink" x="0px" y="0px"
	 viewBox="0 0 128 128" enable-background="new 0 0 128 128" xml:space="preserve">
<path fill-rule="evenodd" clip-rule="evenodd" fill="#F5AE1A" d="M64.5,109.4c23.8,0,43.2-19.4,43.2-43.2S88.3,22.9,64.5,22.9
	S21.3,42.4,21.3,66.2S40.7,109.4,64.5,109.4z"/>
<g>
	<g>
		<path fill-rule="evenodd" clip-rule="evenodd" fill="#8B4A23" d="M29.9,95.5c2.7-10.8,6.7-26.6,8.9-24.7c2.9,2.6,9.1-35.6,13-30.1
			c3.9,5.5,10.6,27.9,13.3,25.7c2.7-2.1,8.8,12.3,9.8,10.5c0.8-1.5,4-11.6,7.8-6.3c2.9,4,7.5,26.4,10.9,23c0.9-0.9,2.2,0.8,3.9,4
			c-8.6,11.8-17.7,15.8-33,15.8S50.6,94.6,29.9,95.5z"/>
		<path fill-rule="evenodd" clip-rule="evenodd" fill="#B46324" d="M89.7,81.9c3.5,5.3,1.8,14.5,3.7,12.6c0.9-0.9,2.2,0.8,3.9,4
			c-8.6,11.8-20.4,15-32.8,15c-12.4,0-17.6-2.6-24.8-7c1.1-2.5,2.4-5,3.3-7.1c1.5-3.6,3.8-2.3,5.6-5.3c1.8-3,3.6-2,4.9,0
			c1.3,2,4.9-1.5,7.7-6.6C67.4,87.7,78.2,85.2,89.7,81.9z"/>
	</g>
	<path fill-rule="evenodd" clip-rule="evenodd" fill="#AE662E" d="M29.9,95.5c2.7-10.8,6.7-26.6,8.9-24.7c2.9,2.6,9.1-35.6,13-30.1
		c3.9,5.5,10.6,27.9,13.3,25.7c2.7-2.1,8.8,12.3,9.8,10.5c0.8-1.5,4-11.6,7.8-6.3c2.9,4,6.5,27.8,9.9,24.4c0.9-0.9,2.2,0.8,3.9,4
		c-8.6,11.8-16.7,14.4-31.9,14.4S45.5,90.5,29.9,95.5z"/>
	<path fill-rule="evenodd" clip-rule="evenodd" fill="#9F5924" d="M39.1,71.2c2.5,4.3,4,10.8,7,7.1c2.9-3.7,2.5-5.1,5.3,0.4
		c2.7,5.5,6.4,0,7.6,2.3c1.2,2.3,5.7-7.6,12.7-0.8c6.3,6.2-15.2,27.6-19.4,31.7c-9.7-2.6-10.7-19.6-22.3-16.4
		c2.7-10.8,6.7-26.6,8.9-24.7c0.1,0,0.1,0.1,0.2,0.1C39,71,39.1,71.1,39.1,71.2z"/>
	<path fill-rule="evenodd" clip-rule="evenodd" fill="#8B4A23" d="M90.6,84.6c3.5,5.3,0.8,11.6,2.7,9.7c0.5-0.5,2.2,1.4,3.8,4.1
		c-8.6,11.8-20.2,15.2-32.6,15.2c-12.4,0-17.6-2.6-24.8-7c1.1-2.5,2.4-5,3.3-7.1c1.5-3.6,3.8-2.3,5.6-5.3c1.8-3,3.6-2,4.9,0
		c1.3,2,4.7-1.6,7.5-6.7c2.3-1.9,5.6,0.1,9.6-3.7C73.9,80.5,85.6,88.9,90.6,84.6z"/>
	<path fill-rule="evenodd" clip-rule="evenodd" fill="#D2EAE8" d="M46,51.2c2-7.3,4.2-12.8,5.8-10.5c3.9,5.5,10.6,27.9,13.3,25.7
		c2.7-2.1,8.8,12.3,9.8,10.5c0.8-1.5,4-11.6,7.8-6.3c9.7,13.7,14.2,23.6,15.1,28.4c-6.6-0.2-1.4-3.8-4.5-5.1
		c-1.9-0.7,1.4-4.5-1.1-4.2c-2.4,0.3-2.5,0.6-4.9-1.9c-2.4-2.5-4.3-0.5-6.6-2.4c-2.8-2.4-4.3,0.8-6.2,0c-2.9-1.2-3.7-0.4-4.9,2.4
		c-1.5,3.3-2.4,3.7-3.8,0.4c-0.4-1-2.4-0.5-3.3,0c-1.7,1.1-3.6,2-2.1-1c1.2-2.5,1.9-1.9,4.2-1.7c2.3,0.2,2.6-1.8,3.8-3.6
		c1.7-2.9,4.4-2.1,6.3-0.7c1.1,0.8,2.1,0.6,3.8,0.3c1.7-0.3,2.7,1.1,4.9,2.7c2.3,1.5,4.2-0.6,2.5-0.7c-1.7-0.1-1.3-2.5-2.5-3.1
		c-1.3-0.6-1-3.4-1.3-2.3c-0.3,1.1-2.5,5.5-2.2-0.5c0.3-6-2.6-2.9-5-0.5c-0.8,0.8-1.3-0.7-3.3,0.1c-1.4,0.5-1.9-4.3-3.8-3.1
		c-1.9,1.2-2.1-1.6-2.1-4.5c0-2.9-1.6,0.5-3.3,4.3c-1.7,3.8-2.1-4.2-1.7-7.5c0.3-3.3-1-7.3-3.1-7.1c-2.1,0.2-0.9-6.1-2.6-6.1
		c-1.7,0-1.6-3.3-3-1.7c-1.4,1.6-4.2,4.9-3.3,0.9C49.5,48.6,48.6,49.6,46,51.2z"/>
</g>
<g>
	<polygon fill-rule="evenodd" clip-rule="evenodd" fill="#137C66" points="42,102.4 45.4,107 25.3,107 28.6,102.4 26.5,102.4 
		30.5,96.9 28.5,96.9 32.6,91.3 30.4,91.3 35.3,84.6 40.2,91.3 38,91.3 42.1,96.9 40.2,96.9 44.2,102.4 	"/>
	<polygon fill-rule="evenodd" clip-rule="evenodd" fill="#1B9078" points="54,108.6 57.3,113.2 37.2,113.2 40.6,108.6 38.4,108.6 
		42.4,103.1 40.5,103.1 44.6,97.5 42.4,97.5 47.3,90.8 52.2,97.5 50,97.5 54.1,103.1 52.2,103.1 56.1,108.6 	"/>
	<polygon fill-rule="evenodd" clip-rule="evenodd" fill="#137C66" points="98.9,102.4 102.3,107 82.2,107 85.6,102.4 83.4,102.4 
		87.4,96.9 85.4,96.9 89.5,91.3 87.3,91.3 92.2,84.6 97.2,91.3 95,91.3 99.1,96.9 97.1,96.9 101.1,102.4 	"/>
	<polygon fill-rule="evenodd" clip-rule="evenodd" fill="#1B9078" points="88.8,108.6 92.2,113.2 72.1,113.2 75.4,108.6 73.3,108.6 
		77.2,103.1 75.3,103.1 79.4,97.5 77.2,97.5 82.1,90.8 87,97.5 84.8,97.5 88.9,103.1 87,103.1 91,108.6 	"/>
	<polygon fill-rule="evenodd" clip-rule="evenodd" fill="#26A88C" points="71.2,110.5 74.6,115.1 54.5,115.1 57.8,110.5 55.7,110.5 
		59.6,105 57.7,105 61.8,99.4 59.6,99.4 64.5,92.7 69.4,99.4 67.2,99.4 71.3,105 69.4,105 73.3,110.5 	"/>
</g>
<path fill="#FFFFFF" d="M50.7,30.2c0-0.4,0.8-0.4,0.7,0l0,10.7c0,0.4-0.8,0.4-0.7,0L50.7,30.2z"/>
<path fill-rule="evenodd" clip-rule="evenodd" fill="#CD3873" d="M64,30.7c-7.5,2.7-9.7-3.5-13.3,0.6l0,5.9
	c3.6-4.1,5.8,2.1,13.3-0.6c-1.8-0.9-2.4-1.4-3.3-2.4C61.9,33.2,63,32.2,64,30.7z"/>
</svg>
