<?xml version="1.0" encoding="utf-8"?>
<!-- Generator: Adobe Illustrator 18.0.0, SVG Export Plug-In . SVG Version: 6.00 Build 0)  -->
<!DOCTYPE svg PUBLIC "-//W3C//DTD SVG 1.1//EN" "http://www.w3.org/Graphics/SVG/1.1/DTD/svg11.dtd">
<svg version="1.1" id="图层_1" xmlns="http://www.w3.org/2000/svg" xmlns:xlink="http://www.w3.org/1999/xlink" x="0px" y="0px"
	 viewBox="0 0 128 128" enable-background="new 0 0 128 128" xml:space="preserve">
<path fill-rule="evenodd" clip-rule="evenodd" fill="#EF91B8" d="M55.5,112c19.7,0,35.8-16.1,35.8-35.8c0-19.7-16.1-35.8-35.8-35.8
	c-19.7,0-35.8,16.1-35.8,35.8C19.7,95.9,35.8,112,55.5,112z"/>
<path fill-rule="evenodd" clip-rule="evenodd" fill="#FCEDC1" d="M55.5,105.6c16.2,0,29.5-13.2,29.5-29.5
	c0-16.2-13.2-29.5-29.5-29.5C39.3,46.7,26,59.9,26,76.2C26,92.4,39.3,105.6,55.5,105.6z"/>
<path fill-rule="evenodd" clip-rule="evenodd" fill="#CD3873" d="M55.5,100.6c13.5,0,24.4-11,24.4-24.4c0-13.5-11-24.4-24.4-24.4
	c-13.5,0-24.4,11-24.4,24.4C31.1,89.6,42,100.6,55.5,100.6z"/>
<path fill-rule="evenodd" clip-rule="evenodd" fill="#F7D46D" d="M55.5,92c8.7,0,15.9-7.1,15.9-15.9c0-8.7-7.1-15.9-15.9-15.9
	c-8.7,0-15.9,7.1-15.9,15.9C39.6,84.9,46.7,92,55.5,92z"/>
<path fill-rule="evenodd" clip-rule="evenodd" fill="#A22D5C" d="M55.5,83.9c4.3,0,7.7-3.5,7.7-7.7c0-4.3-3.5-7.7-7.7-7.7
	c-4.3,0-7.7,3.5-7.7,7.7C47.8,80.4,51.2,83.9,55.5,83.9z"/>
<g>
	<path fill-rule="evenodd" clip-rule="evenodd" fill="#FFFFFF" d="M63.6,67L57,74.4l8.5-5.2C66.7,68.5,64.5,65.9,63.6,67z"/>
	<path fill-rule="evenodd" clip-rule="evenodd" fill="#26A88C" d="M65,63.3l36.9-26.6L69.4,68.5C65,72.8,59.8,67.1,65,63.3z"/>
	<path fill-rule="evenodd" clip-rule="evenodd" fill="#8B4A23" d="M92.9,44.4c-0.4-2.5-0.6-9.5,2.1-11.9c2.7-2.5,6.9-1.2,6.9,4.4
		L92.9,44.4z"/>
	<path fill-rule="evenodd" clip-rule="evenodd" fill="#AE662E" d="M92.9,44.4c2.4,0.8,8.6,1.3,11.5-1c2.9-2.2,2.3-5.8-2.5-6.6
		L92.9,44.4z"/>
</g>
</svg>
